# xmcd
#
# Track frame offsets:
#	150
#	14463
#	31895
#	54071
#	66352
#	86106
#	102213
#	124913
#	147335
#	169695
#	198299
#
# Disc length: 2893 seconds
#
# Revision: 1
# Processed by: cddbd v1.5.2PL0 Copyright (c) Steve Scherf et al.
# Submitted via: audiograbber 1.83.01
#
DISCID=910b4b0b
DTITLE=Jonathan Blues Band - AMIGA BLUES and SOUL - Überdruck
DYEAR=1987
DGENRE=DDR
TTITLE0=Grüne Kuh
TTITLE1=Die Geschichte vom kleinen Peter und dem Rock'n'Roll
TTITLE2=Wer ich bin
TTITLE3=Der Mann am Schalter
TTITLE4=Body Building fee
TTITLE5=Guitar-Stomp
TTITLE6=Hautnah bei mir
TTITLE7=Gib dir ein leben
TTITLE8=Blues in der Nacht
TTITLE9=Daddy's Boogie
TTITLE10=Rock'n'Roll Mann
EXTD=
EXTT0=
EXTT1=
EXTT2=
EXTT3=
EXTT4=
EXTT5=
EXTT6=
EXTT7=
EXTT8=
EXTT9=
EXTT10=
PLAYORDER=
